<?xml version="1.0" encoding="UTF-8"?>
<!DOCTYPE svg PUBLIC "-//W3C//DTD SVG 1.1//EN" "http://www.w3.org/Graphics/SVG/1.1/DTD/svg11.dtd">
<!-- Creator: CorelDRAW -->
<svg xmlns="http://www.w3.org/2000/svg" xml:space="preserve" width="2.78067in" height="0.920587in" version="1.1" style="shape-rendering:geometricPrecision; text-rendering:geometricPrecision; image-rendering:optimizeQuality; fill-rule:evenodd; clip-rule:evenodd"
viewBox="0 0 1097.07 363.2"
 xmlns:xlink="http://www.w3.org/1999/xlink"
 xmlns:xodm="http://www.corel.com/coreldraw/odm/2003">
 <defs>
  <style type="text/css">
   <![CDATA[
    .fil2 {fill:#FFCC00}
    .fil0 {fill:black;fill-rule:nonzero}
    .fil1 {fill:#006633;fill-rule:nonzero}
   ]]>
  </style>
 </defs>
 <g id="Layer_x0020_1">
  <metadata id="CorelCorpID_0Corel-Layer"/>
  <path class="fil0" d="M134.82 283.81l0 -40.28 16.68 0c1.74,0 3.34,0.36 4.79,1.08 1.46,0.72 2.71,1.69 3.77,2.92 1.06,1.23 1.89,2.59 2.5,4.09 0.6,1.49 0.91,3.02 0.91,4.57 0,2.19 -0.48,4.26 -1.45,6.21 -0.96,1.95 -2.32,3.53 -4.06,4.74 -1.74,1.21 -3.78,1.81 -6.12,1.81l-13.05 0 0 14.86 -3.97 0zm3.97 -18.38l12.88 0c1.59,0 2.97,-0.43 4.14,-1.3 1.17,-0.87 2.08,-2 2.72,-3.4 0.64,-1.4 0.96,-2.91 0.96,-4.54 0,-1.66 -0.38,-3.2 -1.14,-4.59 -0.75,-1.4 -1.75,-2.51 -2.98,-3.32 -1.23,-0.81 -2.58,-1.22 -4.06,-1.22l-12.53 0 0 18.38z"/>
  <polygon class="fil0" points="181.2,283.81 181.2,243.54 185.17,243.54 185.17,280.3 208.43,280.3 208.43,283.81 "/>
  <path class="fil0" d="M237.85 243.54l3.35 0 16.74 40.28 -4.2 0 -5.03 -12.59 -18.42 0 -5.03 12.59 -4.25 0 16.85 -40.28zm9.61 24.56l-7.96 -19.91 -7.96 19.91 15.92 0z"/>
  <polygon class="fil0" points="299.54,247.05 285.19,247.05 285.19,283.81 281.22,283.81 281.22,247.05 266.87,247.05 266.87,243.54 299.54,243.54 "/>
  <polygon class="fil0" points="343.71,280.3 343.71,283.81 316.65,283.81 316.65,243.54 343.2,243.54 343.2,247.05 320.62,247.05 320.62,261.58 340.3,261.58 340.3,264.92 320.62,264.92 320.62,280.3 "/>
  <path class="fil0" d="M374.77 243.54l3.35 0 16.73 40.28 -4.2 0 -5.03 -12.59 -18.42 0 -5.03 12.59 -4.25 0 16.85 -40.28zm9.61 24.56l-7.96 -19.91 -7.96 19.91 15.92 0z"/>
  <path class="fil0" d="M426.42 284.1c-3.18,0 -5.86,-0.57 -8.05,-1.7 -2.19,-1.14 -3.93,-2.66 -5.22,-4.57 -1.29,-1.91 -2.22,-4.08 -2.81,-6.5 -0.59,-2.42 -0.88,-4.92 -0.88,-7.49l0 -20.31 3.91 0 0 20.31c0,2.08 0.22,4.12 0.65,6.13 0.44,2.01 1.14,3.8 2.13,5.39 0.98,1.59 2.31,2.85 3.97,3.77 1.66,0.93 3.74,1.39 6.24,1.39 2.57,0 4.7,-0.48 6.38,-1.45 1.68,-0.96 3.01,-2.24 3.97,-3.83 0.96,-1.59 1.65,-3.38 2.07,-5.36 0.42,-1.99 0.63,-4 0.63,-6.04l0 -20.31 3.97 0 0 20.31c0,2.69 -0.3,5.26 -0.91,7.72 -0.6,2.46 -1.58,4.61 -2.92,6.46 -1.35,1.85 -3.09,3.33 -5.25,4.43 -2.16,1.1 -4.79,1.65 -7.89,1.65z"/>
  <path class="fil0" d="M475.75 263.33c0,-2.46 0.43,-4.87 1.28,-7.23 0.85,-2.36 2.09,-4.52 3.72,-6.47 1.62,-1.95 3.63,-3.5 6.01,-4.65 2.38,-1.15 5.09,-1.73 8.11,-1.73 3.59,0 6.66,0.82 9.22,2.47 2.55,1.64 4.44,3.75 5.64,6.32l-3.12 1.93c-0.87,-1.78 -1.97,-3.19 -3.29,-4.22 -1.32,-1.04 -2.73,-1.79 -4.22,-2.24 -1.49,-0.45 -2.98,-0.68 -4.45,-0.68 -2.42,0 -4.56,0.48 -6.41,1.45 -1.85,0.96 -3.41,2.25 -4.68,3.86 -1.27,1.61 -2.22,3.4 -2.86,5.39 -0.64,1.98 -0.96,4 -0.96,6.04 0,2.23 0.38,4.37 1.13,6.41 0.76,2.04 1.81,3.85 3.17,5.42 1.36,1.57 2.96,2.82 4.79,3.74 1.83,0.93 3.83,1.39 5.99,1.39 1.51,0 3.06,-0.27 4.65,-0.79 1.59,-0.53 3.07,-1.34 4.45,-2.44 1.38,-1.1 2.49,-2.52 3.32,-4.25l3.29 1.7c-0.83,2 -2.12,3.7 -3.86,5.11 -1.74,1.4 -3.68,2.46 -5.81,3.18 -2.14,0.72 -4.23,1.08 -6.27,1.08 -2.76,0 -5.29,-0.6 -7.6,-1.79 -2.31,-1.19 -4.3,-2.78 -5.98,-4.76 -1.68,-1.99 -2.98,-4.22 -3.89,-6.69 -0.91,-2.48 -1.36,-4.98 -1.36,-7.52z"/>
  <path class="fil0" d="M544.2 284.1c-2.84,0 -5.41,-0.57 -7.72,-1.7 -2.31,-1.14 -4.29,-2.68 -5.96,-4.63 -1.66,-1.95 -2.95,-4.14 -3.86,-6.58 -0.91,-2.44 -1.36,-4.94 -1.36,-7.51 0,-2.69 0.47,-5.25 1.42,-7.69 0.94,-2.44 2.28,-4.61 4,-6.52 1.72,-1.91 3.74,-3.42 6.04,-4.54 2.31,-1.12 4.8,-1.67 7.49,-1.67 2.83,0 5.41,0.59 7.71,1.76 2.31,1.17 4.28,2.74 5.93,4.71 1.64,1.97 2.92,4.16 3.83,6.58 0.91,2.42 1.36,4.9 1.36,7.43 0,2.68 -0.47,5.25 -1.42,7.69 -0.94,2.44 -2.27,4.61 -3.97,6.52 -1.7,1.91 -3.71,3.41 -6.01,4.51 -2.31,1.1 -4.8,1.65 -7.49,1.65zm-14.92 -20.42c0,2.19 0.36,4.3 1.07,6.32 0.72,2.02 1.74,3.82 3.07,5.39 1.32,1.57 2.9,2.82 4.73,3.74 1.84,0.93 3.85,1.39 6.04,1.39 2.31,0 4.38,-0.48 6.21,-1.45 1.83,-0.96 3.4,-2.25 4.7,-3.86 1.31,-1.61 2.3,-3.41 2.98,-5.42 0.68,-2.01 1.02,-4.05 1.02,-6.13 0,-2.19 -0.36,-4.29 -1.08,-6.3 -0.72,-2.01 -1.75,-3.8 -3.09,-5.39 -1.34,-1.59 -2.92,-2.84 -4.74,-3.74 -1.81,-0.91 -3.82,-1.36 -6.01,-1.36 -2.27,0 -4.32,0.47 -6.15,1.42 -1.84,0.95 -3.41,2.22 -4.71,3.83 -1.3,1.61 -2.31,3.41 -3.01,5.41 -0.7,2.01 -1.05,4.05 -1.05,6.13z"/>
  <polygon class="fil0" points="617.35,283.81 617.35,251.02 602.77,276.49 600.27,276.49 585.64,251.02 585.64,283.81 581.67,283.81 581.67,243.54 585.75,243.54 601.47,271.11 617.29,243.54 621.32,243.54 621.32,283.81 "/>
  <polygon class="fil0" points="678.19,283.81 678.19,251.02 663.62,276.49 661.12,276.49 646.48,251.02 646.48,283.81 642.51,283.81 642.51,243.54 646.6,243.54 662.31,271.11 678.14,243.54 682.16,243.54 682.16,283.81 "/>
  <path class="fil0" d="M719.58 284.1c-2.84,0 -5.41,-0.57 -7.71,-1.7 -2.31,-1.14 -4.29,-2.68 -5.96,-4.63 -1.67,-1.95 -2.95,-4.14 -3.86,-6.58 -0.91,-2.44 -1.36,-4.94 -1.36,-7.51 0,-2.69 0.47,-5.25 1.42,-7.69 0.94,-2.44 2.28,-4.61 4,-6.52 1.72,-1.91 3.73,-3.42 6.04,-4.54 2.31,-1.12 4.8,-1.67 7.49,-1.67 2.83,0 5.41,0.59 7.71,1.76 2.31,1.17 4.28,2.74 5.93,4.71 1.64,1.97 2.92,4.16 3.83,6.58 0.91,2.42 1.36,4.9 1.36,7.43 0,2.68 -0.47,5.25 -1.42,7.69 -0.94,2.44 -2.27,4.61 -3.97,6.52 -1.7,1.91 -3.71,3.41 -6.01,4.51 -2.31,1.1 -4.8,1.65 -7.49,1.65zm-14.92 -20.42c0,2.19 0.36,4.3 1.07,6.32 0.72,2.02 1.74,3.82 3.06,5.39 1.32,1.57 2.9,2.82 4.74,3.74 1.83,0.93 3.85,1.39 6.04,1.39 2.31,0 4.38,-0.48 6.21,-1.45 1.83,-0.96 3.4,-2.25 4.71,-3.86 1.31,-1.61 2.3,-3.41 2.98,-5.42 0.68,-2.01 1.02,-4.05 1.02,-6.13 0,-2.19 -0.36,-4.29 -1.08,-6.3 -0.72,-2.01 -1.75,-3.8 -3.09,-5.39 -1.34,-1.59 -2.92,-2.84 -4.74,-3.74 -1.81,-0.91 -3.82,-1.36 -6.01,-1.36 -2.27,0 -4.32,0.47 -6.15,1.42 -1.83,0.95 -3.4,2.22 -4.71,3.83 -1.3,1.61 -2.31,3.41 -3.01,5.41 -0.7,2.01 -1.05,4.05 -1.05,6.13z"/>
  <path class="fil0" d="M757.05 283.81l0 -40.28 13.67 0c4.27,0 7.84,0.9 10.69,2.7 2.85,1.8 5,4.22 6.44,7.26 1.44,3.05 2.16,6.42 2.16,10.13 0,4.08 -0.79,7.64 -2.35,10.66 -1.57,3.03 -3.8,5.37 -6.69,7.04 -2.89,1.66 -6.31,2.49 -10.24,2.49l-13.67 0zm28.99 -20.19c0,-3.22 -0.6,-6.07 -1.79,-8.57 -1.19,-2.49 -2.92,-4.45 -5.19,-5.87 -2.27,-1.42 -5.05,-2.13 -8.34,-2.13l-9.7 0 0 33.24 9.7 0c3.33,0 6.12,-0.74 8.4,-2.21 2.27,-1.48 3.99,-3.47 5.16,-5.98 1.17,-2.51 1.76,-5.34 1.76,-8.48z"/>
  <polygon class="fil0" points="808.7,283.81 808.7,243.54 812.68,243.54 812.68,283.81 "/>
  <polygon class="fil0" points="862.46,247.05 848.11,247.05 848.11,283.81 844.13,283.81 844.13,247.05 829.78,247.05 829.78,243.54 862.46,243.54 "/>
  <polygon class="fil0" points="879.79,243.54 892.95,265.21 906.22,243.54 910.54,243.54 894.93,268.84 894.93,283.81 890.96,283.81 890.96,268.72 875.42,243.54 "/>
  <polygon class="fil0" points="170.51,362.92 170.51,330.13 155.93,355.6 153.43,355.6 138.8,330.13 138.8,362.92 134.82,362.92 134.82,322.64 138.91,322.64 154.62,350.21 170.45,322.64 174.48,322.64 174.48,362.92 "/>
  <path class="fil0" d="M208.15 322.64l3.35 0 16.74 40.28 -4.2 0 -5.03 -12.59 -18.42 0 -5.03 12.59 -4.25 0 16.85 -40.28zm9.61 24.56l-7.96 -19.91 -7.96 19.91 15.92 0z"/>
  <path class="fil0" d="M245.11 362.92l0 -40.28 17.02 0c1.74,0 3.33,0.36 4.76,1.08 1.44,0.72 2.69,1.69 3.77,2.92 1.08,1.23 1.91,2.59 2.5,4.09 0.59,1.49 0.88,3.02 0.88,4.57 0,1.93 -0.37,3.75 -1.11,5.45 -0.74,1.7 -1.78,3.14 -3.12,4.31 -1.34,1.17 -2.92,1.95 -4.74,2.33l9.87 15.54 -4.48 0 -9.47 -14.86 -11.91 0 0 14.86 -3.97 0zm3.97 -18.38l13.16 0c1.59,0 2.97,-0.43 4.14,-1.3 1.17,-0.87 2.08,-2.01 2.72,-3.43 0.64,-1.42 0.96,-2.92 0.96,-4.51 0,-1.62 -0.37,-3.13 -1.11,-4.51 -0.74,-1.38 -1.72,-2.49 -2.95,-3.35 -1.23,-0.85 -2.6,-1.28 -4.11,-1.28l-12.82 0 0 18.38z"/>
  <polygon class="fil0" points="293.25,362.92 293.25,322.64 297.22,322.64 297.22,346.04 319.4,322.59 323.76,322.59 307.31,340.31 324.62,362.92 320.13,362.92 304.76,342.7 297.22,350.53 297.22,362.92 "/>
  <polygon class="fil0" points="367.87,359.4 367.87,362.92 340.81,362.92 340.81,322.64 367.36,322.64 367.36,326.16 344.78,326.16 344.78,340.68 364.47,340.68 364.47,344.03 344.78,344.03 344.78,359.4 "/>
  <polygon class="fil0" points="415.04,326.16 400.69,326.16 400.69,362.92 396.72,362.92 396.72,326.16 382.37,326.16 382.37,322.64 415.04,322.64 "/>
  <path class="fil0" d="M442.31 342.44c0,-2.46 0.43,-4.87 1.28,-7.23 0.85,-2.36 2.09,-4.52 3.72,-6.47 1.62,-1.95 3.63,-3.5 6.01,-4.65 2.38,-1.15 5.09,-1.73 8.11,-1.73 3.59,0 6.67,0.82 9.22,2.47 2.55,1.64 4.44,3.75 5.64,6.32l-3.12 1.93c-0.87,-1.78 -1.97,-3.19 -3.29,-4.23 -1.32,-1.04 -2.73,-1.79 -4.22,-2.24 -1.49,-0.45 -2.98,-0.68 -4.45,-0.68 -2.42,0 -4.56,0.48 -6.41,1.45 -1.85,0.96 -3.41,2.25 -4.68,3.86 -1.27,1.61 -2.22,3.4 -2.87,5.39 -0.64,1.99 -0.96,4 -0.96,6.04 0,2.23 0.38,4.37 1.13,6.41 0.76,2.04 1.81,3.85 3.18,5.42 1.36,1.57 2.96,2.82 4.79,3.74 1.84,0.93 3.83,1.39 5.99,1.39 1.51,0 3.06,-0.27 4.65,-0.8 1.59,-0.53 3.07,-1.34 4.45,-2.44 1.38,-1.1 2.49,-2.51 3.32,-4.25l3.29 1.7c-0.83,2 -2.12,3.7 -3.86,5.11 -1.74,1.4 -3.68,2.46 -5.81,3.18 -2.14,0.72 -4.23,1.08 -6.27,1.08 -2.76,0 -5.29,-0.6 -7.6,-1.79 -2.31,-1.19 -4.3,-2.78 -5.98,-4.76 -1.68,-1.99 -2.98,-4.22 -3.88,-6.69 -0.91,-2.48 -1.36,-4.98 -1.36,-7.52z"/>
  <path class="fil0" d="M510.75 363.2c-2.84,0 -5.41,-0.57 -7.71,-1.7 -2.31,-1.14 -4.29,-2.68 -5.96,-4.62 -1.67,-1.95 -2.95,-4.14 -3.86,-6.58 -0.91,-2.44 -1.36,-4.94 -1.36,-7.51 0,-2.69 0.47,-5.25 1.42,-7.69 0.94,-2.44 2.28,-4.61 4,-6.52 1.72,-1.91 3.73,-3.42 6.04,-4.54 2.31,-1.12 4.8,-1.67 7.49,-1.67 2.83,0 5.41,0.59 7.72,1.76 2.31,1.17 4.28,2.74 5.93,4.71 1.64,1.97 2.92,4.16 3.83,6.58 0.91,2.42 1.36,4.9 1.36,7.43 0,2.68 -0.47,5.25 -1.42,7.69 -0.94,2.44 -2.27,4.61 -3.97,6.52 -1.7,1.91 -3.71,3.41 -6.01,4.51 -2.31,1.1 -4.8,1.65 -7.49,1.65zm-14.92 -20.42c0,2.19 0.36,4.3 1.08,6.32 0.72,2.02 1.74,3.82 3.06,5.39 1.32,1.57 2.9,2.82 4.74,3.74 1.83,0.93 3.85,1.39 6.04,1.39 2.31,0 4.38,-0.48 6.21,-1.45 1.83,-0.96 3.4,-2.25 4.71,-3.86 1.31,-1.61 2.3,-3.41 2.98,-5.42 0.68,-2.01 1.02,-4.05 1.02,-6.13 0,-2.19 -0.36,-4.29 -1.08,-6.3 -0.72,-2.01 -1.75,-3.8 -3.09,-5.39 -1.34,-1.59 -2.92,-2.84 -4.74,-3.74 -1.82,-0.91 -3.82,-1.36 -6.01,-1.36 -2.27,0 -4.32,0.47 -6.15,1.42 -1.83,0.95 -3.4,2.22 -4.71,3.83 -1.3,1.61 -2.31,3.41 -3,5.42 -0.7,2.01 -1.05,4.05 -1.05,6.13z"/>
  <polygon class="fil0" points="583.91,362.92 583.91,330.13 569.33,355.6 566.83,355.6 552.2,330.13 552.2,362.92 548.22,362.92 548.22,322.64 552.31,322.64 568.02,350.21 583.85,322.64 587.88,322.64 587.88,362.92 "/>
  <path class="fil0" d="M609.07 362.92l0 -40.28 16.68 0c1.74,0 3.34,0.36 4.79,1.08 1.46,0.72 2.71,1.69 3.77,2.92 1.06,1.23 1.89,2.59 2.5,4.09 0.6,1.49 0.91,3.02 0.91,4.57 0,2.2 -0.48,4.27 -1.44,6.21 -0.97,1.95 -2.32,3.53 -4.06,4.74 -1.74,1.21 -3.78,1.82 -6.12,1.82l-13.05 0 0 14.86 -3.97 0zm3.97 -18.38l12.88 0c1.59,0 2.97,-0.43 4.14,-1.3 1.17,-0.87 2.08,-2 2.72,-3.4 0.64,-1.4 0.96,-2.91 0.96,-4.54 0,-1.66 -0.38,-3.19 -1.14,-4.59 -0.75,-1.4 -1.75,-2.51 -2.98,-3.32 -1.23,-0.82 -2.58,-1.22 -4.06,-1.22l-12.54 0 0 18.38z"/>
  <path class="fil0" d="M665.15 322.64l3.35 0 16.74 40.28 -4.2 0 -5.03 -12.59 -18.42 0 -5.03 12.59 -4.25 0 16.85 -40.28zm9.61 24.56l-7.96 -19.91 -7.96 19.91 15.92 0z"/>
  <polygon class="fil0" points="706.08,329.96 706.08,362.92 702.11,362.92 702.11,322.64 705.4,322.64 731.83,356.22 731.83,322.7 735.8,322.7 735.8,362.92 732.11,362.92 "/>
  <polygon class="fil0" points="757.22,322.64 770.38,344.31 783.65,322.64 787.97,322.64 772.37,347.94 772.37,362.92 768.4,362.92 768.4,347.83 752.85,322.64 "/>
  <polygon class="fil0" points="817.44,362.92 817.44,322.64 821.41,322.64 821.41,359.4 844.67,359.4 844.67,362.92 "/>
  <polygon class="fil0" points="861.6,362.92 861.6,322.64 865.58,322.64 865.58,362.92 "/>
  <polygon class="fil0" points="922.45,362.92 922.45,330.13 907.87,355.6 905.37,355.6 890.74,330.13 890.74,362.92 886.77,362.92 886.77,322.64 890.85,322.64 906.56,350.21 922.39,322.64 926.42,322.64 926.42,362.92 "/>
  <polygon class="fil0" points="947.61,362.92 947.61,322.64 951.58,322.64 951.58,362.92 "/>
  <polygon class="fil0" points="1001.36,326.16 987.01,326.16 987.01,362.92 983.04,362.92 983.04,326.16 968.69,326.16 968.69,322.64 1001.36,322.64 "/>
  <polygon class="fil0" points="1045.53,359.4 1045.53,362.92 1018.47,362.92 1018.47,322.64 1045.02,322.64 1045.02,326.16 1022.44,326.16 1022.44,340.68 1042.12,340.68 1042.12,344.03 1022.44,344.03 1022.44,359.4 "/>
  <path class="fil0" d="M1064.11 362.92l0 -40.28 13.67 0c4.27,0 7.84,0.9 10.69,2.69 2.85,1.8 5,4.22 6.44,7.26 1.44,3.04 2.16,6.42 2.16,10.13 0,4.08 -0.78,7.64 -2.35,10.66 -1.57,3.03 -3.8,5.37 -6.69,7.03 -2.89,1.67 -6.31,2.49 -10.24,2.49l-13.67 0zm28.99 -20.19c0,-3.22 -0.6,-6.07 -1.79,-8.56 -1.19,-2.5 -2.92,-4.45 -5.19,-5.87 -2.27,-1.42 -5.05,-2.13 -8.34,-2.13l-9.7 0 0 33.24 9.7 0c3.33,0 6.13,-0.73 8.4,-2.21 2.27,-1.48 3.99,-3.47 5.16,-5.98 1.17,-2.52 1.76,-5.34 1.76,-8.48z"/>
  <path class="fil1" d="M138.35 2.69l0 147.3 40.74 0 0 -39.62 24.18 0c39.18,0 60.44,-19.48 60.44,-53.95 0,-31.56 -20.82,-53.72 -65.82,-53.72l-59.55 0zm40.74 76.56l0 -41.64 17.69 0c23.06,0 26.86,10.52 26.86,20.15 0,13.88 -7.39,21.49 -25.3,21.49l-19.25 0z"/>
  <path class="fil1" d="M460.26 2.69l-60.67 147.3 45.67 0 11.42 -29.1 55.52 0 11.64 29.1 45.67 0 -60.67 -147.3 -48.58 0zm13.21 70.07c3.36,-8.73 10.3,-31.56 10.3,-31.56l1.34 0c0,0 6.94,23.06 10.3,31.56l7.39 18.13 -36.71 0 7.39 -18.13z"/>
  <path class="fil1" d="M659.28 152.67c31.56,0 52.16,-14.33 60,-22.39l-12.99 -30.45c-8.5,7.16 -22.83,17.01 -42.53,17.01 -27.76,0 -43.21,-17.24 -43.21,-39.85 0,-22.83 15.89,-41.19 42.31,-41.19 15.45,0 28.88,5.59 39.4,14.1l12.54 -32.68c-10.07,-7.61 -26.64,-17.24 -55.74,-17.24 -50.37,0 -82.38,34.92 -82.38,77.68 0,39.18 25.07,74.99 82.6,74.99z"/>
  <path class="fil1" d="M811.5 0c-47.46,0 -81.93,32.68 -81.93,75.44 0,46.56 34.25,77.23 81.93,77.23 49.47,0 81.71,-32.91 81.71,-77.23 0,-42.76 -34.7,-75.44 -81.71,-75.44zm0 37.16c21.94,0 38.5,15.45 38.5,38.5 0,25.52 -16.79,39.85 -38.5,39.85 -21.94,0 -38.73,-14.33 -38.73,-39.85 0,-23.06 16.79,-38.5 38.73,-38.5z"/>
  <path class="fil1" d="M995.29 128.27l5.82 0 27.09 -42.08c3.81,-5.82 15,-25.75 15,-25.75l0.67 0.22c0,0 -1.79,23.06 -1.79,30.67l0 58.65 40.74 0 0 -147.3 -42.09 0 -42.31 65.37 -0.45 0 -42.53 -65.37 -42.09 0 0 147.3 40.74 0 0 -58.65c0,-7.61 -2.01,-30.67 -2.01,-30.67l0.67 -0.22c0,0 11.19,19.92 15,25.75l27.54 42.08z"/>
  <polygon class="fil1" points="283.86,2.69 283.86,149.99 396.02,149.99 396.02,114.17 324.61,114.17 324.61,2.69 "/>
  <path class="fil2" d="M13.71 193.09c135.18,-25.61 389.18,-33.39 513.91,24.28 -145.17,-24.13 -359.39,-19.83 -502.56,12.77 -10.23,3.13 -21.07,-2.62 -24.2,-12.86 -3.13,-10.23 2.62,-21.07 12.85,-24.2z"/>
 </g>
</svg>
