<?xml version="1.0" encoding="UTF-8"?>
<!DOCTYPE svg PUBLIC "-//W3C//DTD SVG 1.1//EN" "http://www.w3.org/Graphics/SVG/1.1/DTD/svg11.dtd">
<!-- Creator: CorelDRAW -->
<svg xmlns="http://www.w3.org/2000/svg" xml:space="preserve" width="1.8416in" height="0.742339in" version="1.1" style="shape-rendering:geometricPrecision; text-rendering:geometricPrecision; image-rendering:optimizeQuality; fill-rule:evenodd; clip-rule:evenodd"
viewBox="0 0 511.02 205.99"
 xmlns:xlink="http://www.w3.org/1999/xlink"
 xmlns:xodm="http://www.corel.com/coreldraw/odm/2003">
 <defs>
  <style type="text/css">
   <![CDATA[
    .fil2 {fill:#FFCC00}
     .fil0 {fill:#ffffff;fill-rule:nonzero}
     .fil1 {fill:#006633;fill-rule:nonzero}
   ]]>
  </style>
 </defs>
 <g id="Layer_x0020_1">
  <metadata id="CorelCorpID_0Corel-Layer"/>
  <path class="fil0" d="M-0 163.83l0 -21.39 8.86 0c0.92,0 1.77,0.19 2.55,0.57 0.77,0.38 1.44,0.9 2,1.55 0.56,0.65 1,1.38 1.33,2.17 0.32,0.79 0.48,1.6 0.48,2.42 0,1.17 -0.26,2.26 -0.77,3.3 -0.51,1.03 -1.23,1.87 -2.15,2.52 -0.92,0.64 -2.01,0.96 -3.25,0.96l-6.93 0 0 7.89 -2.11 0zm2.11 -9.76l6.84 0c0.84,0 1.58,-0.23 2.2,-0.69 0.62,-0.46 1.11,-1.06 1.45,-1.81 0.34,-0.74 0.51,-1.55 0.51,-2.41 0,-0.88 -0.2,-1.7 -0.6,-2.44 -0.4,-0.74 -0.93,-1.33 -1.58,-1.76 -0.65,-0.43 -1.37,-0.65 -2.15,-0.65l-6.66 0 0 9.76z"/>
  <polygon class="fil0" points="24.63,163.83 24.63,142.44 26.74,142.44 26.74,161.96 39.09,161.96 39.09,163.83 "/>
  <path class="fil0" d="M54.71 142.44l1.78 0 8.89 21.39 -2.23 0 -2.67 -6.69 -9.78 0 -2.67 6.69 -2.26 0 8.95 -21.39zm5.1 13.04l-4.23 -10.57 -4.23 10.57 8.46 0z"/>
  <polygon class="fil0" points="87.48,144.31 79.86,144.31 79.86,163.83 77.75,163.83 77.75,144.31 70.12,144.31 70.12,142.44 87.48,142.44 "/>
  <polygon class="fil0" points="110.93,161.96 110.93,163.83 96.56,163.83 96.56,142.44 110.66,142.44 110.66,144.31 98.67,144.31 98.67,152.02 109.12,152.02 109.12,153.8 98.67,153.8 98.67,161.96 "/>
  <path class="fil0" d="M127.43 142.44l1.78 0 8.89 21.39 -2.23 0 -2.67 -6.69 -9.78 0 -2.67 6.69 -2.26 0 8.95 -21.39zm5.1 13.04l-4.23 -10.57 -4.23 10.57 8.46 0z"/>
  <path class="fil0" d="M154.86 163.98c-1.69,0 -3.11,-0.3 -4.28,-0.9 -1.16,-0.6 -2.09,-1.41 -2.77,-2.43 -0.68,-1.01 -1.18,-2.16 -1.49,-3.45 -0.31,-1.28 -0.47,-2.61 -0.47,-3.98l0 -10.78 2.08 0 0 10.78c0,1.1 0.12,2.19 0.35,3.25 0.23,1.07 0.61,2.02 1.13,2.86 0.52,0.84 1.23,1.51 2.11,2 0.88,0.49 1.99,0.74 3.31,0.74 1.37,0 2.5,-0.26 3.39,-0.77 0.89,-0.51 1.6,-1.19 2.11,-2.03 0.51,-0.84 0.88,-1.79 1.1,-2.85 0.22,-1.05 0.33,-2.12 0.33,-3.21l0 -10.78 2.11 0 0 10.78c0,1.43 -0.16,2.79 -0.48,4.1 -0.32,1.31 -0.84,2.45 -1.55,3.43 -0.71,0.98 -1.64,1.77 -2.79,2.35 -1.14,0.58 -2.54,0.87 -4.19,0.87z"/>
  <path class="fil0" d="M181.06 152.95c0,-1.31 0.23,-2.59 0.68,-3.84 0.45,-1.26 1.11,-2.4 1.97,-3.43 0.86,-1.03 1.93,-1.86 3.19,-2.47 1.27,-0.61 2.7,-0.92 4.31,-0.92 1.91,0 3.54,0.44 4.9,1.31 1.36,0.87 2.36,1.99 3,3.36l-1.66 1.02c-0.46,-0.94 -1.04,-1.69 -1.75,-2.24 -0.7,-0.55 -1.45,-0.95 -2.24,-1.19 -0.79,-0.24 -1.58,-0.36 -2.37,-0.36 -1.29,0 -2.42,0.26 -3.4,0.77 -0.98,0.51 -1.81,1.19 -2.49,2.05 -0.67,0.85 -1.18,1.81 -1.52,2.86 -0.34,1.05 -0.51,2.12 -0.51,3.21 0,1.19 0.2,2.32 0.6,3.4 0.4,1.08 0.96,2.04 1.69,2.88 0.72,0.83 1.57,1.5 2.55,1.99 0.97,0.49 2.03,0.74 3.18,0.74 0.8,0 1.63,-0.14 2.47,-0.42 0.84,-0.28 1.63,-0.71 2.37,-1.3 0.73,-0.58 1.32,-1.34 1.76,-2.26l1.75 0.9c-0.44,1.06 -1.12,1.97 -2.05,2.71 -0.92,0.74 -1.95,1.31 -3.09,1.69 -1.14,0.38 -2.25,0.57 -3.33,0.57 -1.47,0 -2.81,-0.32 -4.04,-0.95 -1.22,-0.63 -2.28,-1.48 -3.18,-2.53 -0.89,-1.05 -1.58,-2.24 -2.06,-3.55 -0.48,-1.32 -0.72,-2.65 -0.72,-3.99z"/>
  <path class="fil0" d="M217.41 163.98c-1.51,0 -2.87,-0.3 -4.1,-0.9 -1.23,-0.6 -2.28,-1.42 -3.16,-2.46 -0.88,-1.03 -1.57,-2.2 -2.05,-3.49 -0.48,-1.29 -0.72,-2.63 -0.72,-3.99 0,-1.43 0.25,-2.79 0.75,-4.08 0.5,-1.3 1.21,-2.45 2.12,-3.46 0.91,-1.01 1.98,-1.82 3.21,-2.41 1.22,-0.59 2.55,-0.89 3.98,-0.89 1.51,0 2.87,0.31 4.1,0.93 1.22,0.62 2.27,1.46 3.15,2.5 0.87,1.04 1.55,2.21 2.03,3.49 0.48,1.28 0.72,2.6 0.72,3.95 0,1.43 -0.25,2.79 -0.75,4.08 -0.5,1.29 -1.21,2.45 -2.11,3.46 -0.9,1.01 -1.97,1.81 -3.19,2.39 -1.22,0.58 -2.55,0.87 -3.98,0.87zm-7.92 -10.85c0,1.16 0.19,2.28 0.57,3.36 0.38,1.07 0.92,2.03 1.63,2.86 0.7,0.83 1.54,1.5 2.51,1.99 0.97,0.49 2.04,0.74 3.21,0.74 1.22,0 2.32,-0.26 3.3,-0.77 0.97,-0.51 1.81,-1.19 2.5,-2.05 0.69,-0.85 1.22,-1.81 1.58,-2.88 0.36,-1.07 0.54,-2.15 0.54,-3.25 0,-1.17 -0.19,-2.28 -0.57,-3.34 -0.38,-1.07 -0.93,-2.02 -1.64,-2.86 -0.71,-0.84 -1.55,-1.51 -2.52,-1.99 -0.96,-0.48 -2.03,-0.72 -3.19,-0.72 -1.21,0 -2.29,0.25 -3.27,0.75 -0.97,0.5 -1.81,1.18 -2.5,2.03 -0.69,0.85 -1.22,1.81 -1.6,2.88 -0.37,1.07 -0.56,2.15 -0.56,3.25z"/>
  <polygon class="fil0" points="256.26,163.83 256.26,146.42 248.52,159.94 247.19,159.94 239.42,146.42 239.42,163.83 237.31,163.83 237.31,142.44 239.48,142.44 247.82,157.08 256.23,142.44 258.37,142.44 258.37,163.83 "/>
  <polygon class="fil0" points="288.57,163.83 288.57,146.42 280.83,159.94 279.5,159.94 271.73,146.42 271.73,163.83 269.62,163.83 269.62,142.44 271.79,142.44 280.13,157.08 288.54,142.44 290.68,142.44 290.68,163.83 "/>
  <path class="fil0" d="M310.55 163.98c-1.51,0 -2.87,-0.3 -4.1,-0.9 -1.23,-0.6 -2.28,-1.42 -3.16,-2.46 -0.88,-1.03 -1.57,-2.2 -2.05,-3.49 -0.48,-1.29 -0.72,-2.63 -0.72,-3.99 0,-1.43 0.25,-2.79 0.75,-4.08 0.5,-1.3 1.21,-2.45 2.12,-3.46 0.91,-1.01 1.98,-1.82 3.21,-2.41 1.22,-0.59 2.55,-0.89 3.98,-0.89 1.51,0 2.87,0.31 4.1,0.93 1.22,0.62 2.27,1.46 3.15,2.5 0.87,1.04 1.55,2.21 2.03,3.49 0.48,1.28 0.72,2.6 0.72,3.95 0,1.43 -0.25,2.79 -0.75,4.08 -0.5,1.29 -1.21,2.45 -2.11,3.46 -0.9,1.01 -1.97,1.81 -3.19,2.39 -1.22,0.58 -2.55,0.87 -3.98,0.87zm-7.92 -10.85c0,1.16 0.19,2.28 0.57,3.36 0.38,1.07 0.92,2.03 1.63,2.86 0.7,0.83 1.54,1.5 2.51,1.99 0.97,0.49 2.04,0.74 3.21,0.74 1.22,0 2.32,-0.26 3.3,-0.77 0.97,-0.51 1.81,-1.19 2.5,-2.05 0.69,-0.85 1.22,-1.81 1.58,-2.88 0.36,-1.07 0.54,-2.15 0.54,-3.25 0,-1.17 -0.19,-2.28 -0.57,-3.34 -0.38,-1.07 -0.93,-2.02 -1.64,-2.86 -0.71,-0.84 -1.55,-1.51 -2.52,-1.99 -0.96,-0.48 -2.03,-0.72 -3.19,-0.72 -1.21,0 -2.29,0.25 -3.27,0.75 -0.97,0.5 -1.81,1.18 -2.5,2.03 -0.69,0.85 -1.22,1.81 -1.6,2.88 -0.37,1.07 -0.56,2.15 -0.56,3.25z"/>
  <path class="fil0" d="M330.45 163.83l0 -21.39 7.26 0c2.27,0 4.16,0.48 5.68,1.43 1.52,0.95 2.66,2.24 3.42,3.86 0.76,1.62 1.14,3.41 1.14,5.38 0,2.17 -0.42,4.06 -1.25,5.66 -0.83,1.61 -2.02,2.85 -3.55,3.74 -1.54,0.88 -3.35,1.33 -5.44,1.33l-7.26 0zm15.4 -10.72c0,-1.71 -0.32,-3.22 -0.95,-4.55 -0.63,-1.33 -1.55,-2.37 -2.76,-3.12 -1.21,-0.75 -2.68,-1.13 -4.43,-1.13l-5.15 0 0 17.65 5.15 0c1.77,0 3.25,-0.39 4.46,-1.17 1.21,-0.78 2.12,-1.84 2.74,-3.18 0.62,-1.34 0.93,-2.84 0.93,-4.5z"/>
  <polygon class="fil0" points="357.88,163.83 357.88,142.44 359.99,142.44 359.99,163.83 "/>
  <polygon class="fil0" points="386.43,144.31 378.81,144.31 378.81,163.83 376.7,163.83 376.7,144.31 369.08,144.31 369.08,142.44 386.43,142.44 "/>
  <polygon class="fil0" points="395.63,142.44 402.62,153.95 409.67,142.44 411.96,142.44 403.68,155.88 403.68,163.83 401.57,163.83 401.57,155.82 393.31,142.44 "/>
  <polygon class="fil0" points="18.95,205.84 18.95,188.43 11.21,201.95 9.88,201.95 2.11,188.43 2.11,205.84 -0,205.84 -0,184.45 2.17,184.45 10.51,199.09 18.92,184.45 21.06,184.45 21.06,205.84 "/>
  <path class="fil0" d="M38.94 184.45l1.78 0 8.89 21.39 -2.23 0 -2.67 -6.69 -9.78 0 -2.67 6.69 -2.26 0 8.95 -21.39zm5.1 13.04l-4.23 -10.57 -4.23 10.57 8.46 0z"/>
  <path class="fil0" d="M58.57 205.84l0 -21.39 9.04 0c0.92,0 1.77,0.19 2.53,0.57 0.76,0.38 1.43,0.9 2,1.55 0.57,0.65 1.01,1.38 1.33,2.17 0.31,0.79 0.47,1.6 0.47,2.42 0,1.02 -0.2,1.99 -0.59,2.89 -0.39,0.9 -0.94,1.67 -1.66,2.29 -0.71,0.62 -1.55,1.03 -2.52,1.23l5.24 8.25 -2.38 0 -5.03 -7.89 -6.33 0 0 7.89 -2.11 0zm2.11 -9.76l6.99 0c0.84,0 1.58,-0.23 2.2,-0.69 0.62,-0.46 1.1,-1.07 1.45,-1.82 0.34,-0.75 0.51,-1.55 0.51,-2.4 0,-0.86 -0.2,-1.66 -0.59,-2.39 -0.39,-0.73 -0.91,-1.33 -1.57,-1.78 -0.65,-0.45 -1.38,-0.68 -2.18,-0.68l-6.81 0 0 9.76z"/>
  <polygon class="fil0" points="84.13,205.84 84.13,184.45 86.24,184.45 86.24,196.88 98.02,184.42 100.34,184.42 91.6,193.83 100.79,205.84 98.41,205.84 90.25,195.1 86.24,199.26 86.24,205.84 "/>
  <polygon class="fil0" points="123.77,203.97 123.77,205.84 109.4,205.84 109.4,184.45 123.49,184.45 123.49,186.32 111.5,186.32 111.5,194.03 121.96,194.03 121.96,195.81 111.5,195.81 111.5,203.97 "/>
  <polygon class="fil0" points="148.82,186.32 141.2,186.32 141.2,205.84 139.09,205.84 139.09,186.32 131.47,186.32 131.47,184.45 148.82,184.45 "/>
  <path class="fil0" d="M163.3 194.96c0,-1.31 0.23,-2.59 0.68,-3.84 0.45,-1.26 1.11,-2.4 1.97,-3.43 0.86,-1.03 1.93,-1.86 3.19,-2.47 1.27,-0.61 2.7,-0.92 4.31,-0.92 1.91,0 3.54,0.44 4.9,1.31 1.36,0.87 2.36,1.99 3,3.36l-1.66 1.02c-0.46,-0.94 -1.04,-1.69 -1.75,-2.24 -0.7,-0.55 -1.45,-0.95 -2.24,-1.19 -0.79,-0.24 -1.58,-0.36 -2.37,-0.36 -1.29,0 -2.42,0.26 -3.4,0.77 -0.98,0.51 -1.81,1.19 -2.49,2.05 -0.67,0.85 -1.18,1.81 -1.52,2.86 -0.34,1.05 -0.51,2.12 -0.51,3.21 0,1.19 0.2,2.32 0.6,3.4 0.4,1.08 0.96,2.04 1.69,2.88 0.72,0.83 1.57,1.5 2.55,1.99 0.97,0.49 2.03,0.74 3.18,0.74 0.8,0 1.63,-0.14 2.47,-0.42 0.84,-0.28 1.63,-0.71 2.37,-1.3 0.73,-0.58 1.32,-1.34 1.76,-2.26l1.75 0.9c-0.44,1.06 -1.12,1.97 -2.05,2.71 -0.92,0.74 -1.95,1.31 -3.09,1.69 -1.14,0.38 -2.25,0.57 -3.33,0.57 -1.47,0 -2.81,-0.32 -4.04,-0.95 -1.22,-0.63 -2.28,-1.48 -3.18,-2.53 -0.89,-1.05 -1.58,-2.24 -2.06,-3.55 -0.48,-1.32 -0.72,-2.65 -0.72,-3.99z"/>
  <path class="fil0" d="M199.65 205.99c-1.51,0 -2.87,-0.3 -4.1,-0.9 -1.23,-0.6 -2.28,-1.42 -3.16,-2.46 -0.88,-1.03 -1.57,-2.2 -2.05,-3.49 -0.48,-1.29 -0.72,-2.63 -0.72,-3.99 0,-1.43 0.25,-2.79 0.75,-4.08 0.5,-1.3 1.21,-2.45 2.12,-3.46 0.91,-1.01 1.98,-1.82 3.21,-2.41 1.22,-0.59 2.55,-0.89 3.98,-0.89 1.51,0 2.87,0.31 4.1,0.93 1.22,0.62 2.27,1.46 3.15,2.5 0.87,1.04 1.55,2.21 2.03,3.49 0.48,1.28 0.72,2.6 0.72,3.95 0,1.43 -0.25,2.79 -0.75,4.08 -0.5,1.29 -1.21,2.45 -2.11,3.46 -0.9,1.01 -1.97,1.81 -3.19,2.39 -1.22,0.58 -2.55,0.87 -3.98,0.87zm-7.92 -10.85c0,1.16 0.19,2.28 0.57,3.36 0.38,1.07 0.92,2.03 1.63,2.86 0.7,0.83 1.54,1.5 2.51,1.99 0.97,0.49 2.04,0.74 3.21,0.74 1.22,0 2.32,-0.26 3.3,-0.77 0.97,-0.51 1.81,-1.19 2.5,-2.05 0.69,-0.85 1.22,-1.81 1.58,-2.88 0.36,-1.07 0.54,-2.15 0.54,-3.25 0,-1.17 -0.19,-2.28 -0.57,-3.34 -0.38,-1.07 -0.93,-2.02 -1.64,-2.86 -0.71,-0.84 -1.55,-1.51 -2.52,-1.99 -0.96,-0.48 -2.03,-0.72 -3.19,-0.72 -1.21,0 -2.29,0.25 -3.27,0.75 -0.97,0.5 -1.81,1.18 -2.5,2.03 -0.69,0.85 -1.22,1.81 -1.6,2.88 -0.37,1.07 -0.56,2.15 -0.56,3.25z"/>
  <polygon class="fil0" points="238.5,205.84 238.5,188.43 230.75,201.95 229.43,201.95 221.66,188.43 221.66,205.84 219.55,205.84 219.55,184.45 221.72,184.45 230.06,199.09 238.47,184.45 240.6,184.45 240.6,205.84 "/>
  <path class="fil0" d="M251.86 205.84l0 -21.39 8.86 0c0.92,0 1.77,0.19 2.55,0.57 0.77,0.38 1.44,0.9 2,1.55 0.56,0.65 1,1.38 1.33,2.17 0.32,0.79 0.48,1.6 0.48,2.42 0,1.17 -0.26,2.26 -0.77,3.3 -0.51,1.03 -1.23,1.87 -2.15,2.52 -0.92,0.64 -2.01,0.96 -3.25,0.96l-6.93 0 0 7.89 -2.11 0zm2.11 -9.76l6.84 0c0.84,0 1.58,-0.23 2.2,-0.69 0.62,-0.46 1.11,-1.06 1.45,-1.81 0.34,-0.74 0.51,-1.55 0.51,-2.41 0,-0.88 -0.2,-1.7 -0.6,-2.44 -0.4,-0.74 -0.93,-1.33 -1.58,-1.76 -0.65,-0.43 -1.37,-0.65 -2.15,-0.65l-6.66 0 0 9.76z"/>
  <path class="fil0" d="M281.64 184.45l1.78 0 8.89 21.39 -2.23 0 -2.67 -6.69 -9.78 0 -2.67 6.69 -2.26 0 8.95 -21.39zm5.1 13.04l-4.23 -10.57 -4.23 10.57 8.46 0z"/>
  <polygon class="fil0" points="303.38,188.34 303.38,205.84 301.27,205.84 301.27,184.45 303.02,184.45 317.06,202.29 317.06,184.48 319.16,184.48 319.16,205.84 317.21,205.84 "/>
  <polygon class="fil0" points="330.54,184.45 337.53,195.96 344.58,184.45 346.87,184.45 338.58,197.89 338.58,205.84 336.47,205.84 336.47,197.83 328.22,184.45 "/>
  <polygon class="fil0" points="362.52,205.84 362.52,184.45 364.63,184.45 364.63,203.97 376.98,203.97 376.98,205.84 "/>
  <polygon class="fil0" points="385.98,205.84 385.98,184.45 388.08,184.45 388.08,205.84 "/>
  <polygon class="fil0" points="418.29,205.84 418.29,188.43 410.55,201.95 409.22,201.95 401.45,188.43 401.45,205.84 399.34,205.84 399.34,184.45 401.51,184.45 409.85,199.09 418.26,184.45 420.4,184.45 420.4,205.84 "/>
  <polygon class="fil0" points="431.65,205.84 431.65,184.45 433.76,184.45 433.76,205.84 "/>
  <polygon class="fil0" points="460.2,186.32 452.58,186.32 452.58,205.84 450.47,205.84 450.47,186.32 442.85,186.32 442.85,184.45 460.2,184.45 "/>
  <polygon class="fil0" points="483.65,203.97 483.65,205.84 469.28,205.84 469.28,184.45 483.38,184.45 483.38,186.32 471.39,186.32 471.39,194.03 481.84,194.03 481.84,195.81 471.39,195.81 471.39,203.97 "/>
  <path class="fil0" d="M493.52 205.84l0 -21.39 7.26 0c2.27,0 4.16,0.48 5.68,1.43 1.52,0.95 2.66,2.24 3.42,3.86 0.76,1.62 1.14,3.41 1.14,5.38 0,2.17 -0.42,4.06 -1.25,5.66 -0.83,1.61 -2.02,2.85 -3.55,3.74 -1.54,0.88 -3.35,1.33 -5.44,1.33l-7.26 0zm15.4 -10.72c0,-1.71 -0.32,-3.22 -0.95,-4.55 -0.63,-1.33 -1.55,-2.37 -2.76,-3.12 -1.21,-0.75 -2.68,-1.13 -4.43,-1.13l-5.15 0 0 17.65 5.15 0c1.77,0 3.25,-0.39 4.46,-1.17 1.21,-0.78 2.12,-1.84 2.74,-3.18 0.62,-1.34 0.93,-2.84 0.93,-4.5z"/>
  <path class="fil1" d="M1.9 1.45l0 79.2 21.91 0 0 -21.3 13 0c21.06,0 32.5,-10.47 32.5,-29.01 0,-16.97 -11.19,-28.89 -35.39,-28.89l-32.02 0zm21.91 41.16l0 -22.39 9.51 0c12.4,0 14.44,5.66 14.44,10.83 0,7.46 -3.97,11.56 -13.6,11.56l-10.35 0z"/>
  <path class="fil1" d="M174.98 1.45l-32.62 79.2 24.55 0 6.14 -15.65 29.85 0 6.26 15.65 24.55 0 -32.62 -79.2 -26.12 0zm7.1 37.67c1.81,-4.69 5.54,-16.97 5.54,-16.97l0.72 0c0,0 3.73,12.4 5.54,16.97l3.97 9.75 -19.74 0 3.97 -9.75z"/>
  <path class="fil1" d="M281.99 82.09c16.97,0 28.04,-7.7 32.26,-12.04l-6.98 -16.37c-4.57,3.85 -12.28,9.15 -22.87,9.15 -14.93,0 -23.23,-9.27 -23.23,-21.43 0,-12.28 8.55,-22.15 22.75,-22.15 8.31,0 15.53,3.01 21.18,7.58l6.74 -17.57c-5.42,-4.09 -14.32,-9.27 -29.97,-9.27 -27.08,0 -44.29,18.78 -44.29,41.77 0,21.06 13.48,40.32 44.41,40.32z"/>
  <path class="fil1" d="M363.84 0c-25.52,0 -44.05,17.57 -44.05,40.56 0,25.04 18.42,41.53 44.05,41.53 26.6,0 43.93,-17.69 43.93,-41.53 0,-22.99 -18.66,-40.56 -43.93,-40.56zm0 19.98c11.8,0 20.7,8.31 20.7,20.7 0,13.72 -9.03,21.43 -20.7,21.43 -11.8,0 -20.82,-7.7 -20.82,-21.43 0,-12.4 9.03,-20.7 20.82,-20.7z"/>
  <path class="fil1" d="M462.66 68.97l3.13 0 14.56 -22.63c2.05,-3.13 8.06,-13.84 8.06,-13.84l0.36 0.12c0,0 -0.96,12.4 -0.96,16.49l0 31.54 21.91 0 0 -79.2 -22.63 0 -22.75 35.15 -0.24 0 -22.87 -35.15 -22.63 0 0 79.2 21.91 0 0 -31.54c0,-4.09 -1.08,-16.49 -1.08,-16.49l0.36 -0.12c0,0 6.02,10.71 8.06,13.84l14.81 22.63z"/>
  <polygon class="fil1" points="80.13,1.45 80.13,80.65 140.44,80.65 140.44,61.39 102.04,61.39 102.04,1.45 "/>
  <path class="fil2" d="M98.71 103.82c72.68,-13.77 209.25,-17.95 276.32,13.06 -78.06,-12.98 -193.24,-10.66 -270.22,6.87 -5.5,1.68 -11.33,-1.41 -13.01,-6.91 -1.68,-5.5 1.41,-11.33 6.91,-13.01z"/>
 </g>
</svg>
