<?xml version="1.0" encoding="UTF-8"?>
<!DOCTYPE svg PUBLIC "-//W3C//DTD SVG 1.1//EN" "http://www.w3.org/Graphics/SVG/1.1/DTD/svg11.dtd">
<!-- Creator: CorelDRAW -->
<svg xmlns="http://www.w3.org/2000/svg" xml:space="preserve" width="6.05264in" height="3.46875in" version="1.1" style="shape-rendering:geometricPrecision; text-rendering:geometricPrecision; image-rendering:optimizeQuality; fill-rule:evenodd; clip-rule:evenodd"
viewBox="0 0 6041.39 3462.3"
 xmlns:xlink="http://www.w3.org/1999/xlink"
 xmlns:xodm="http://www.corel.com/coreldraw/odm/2003">
 <defs>
  <style type="text/css">
   <![CDATA[
    .fil0 {fill:#065F25}
    .fil1 {fill:#3E9B00}
    .fil2 {fill:#3E9B00;fill-rule:nonzero}
   ]]>
  </style>
 </defs>
 <g id="Layer_x0020_1">
  <metadata id="CorelCorpID_0Corel-Layer"/>
  <polygon class="fil0" points="1079.42,68 1530.14,68 1530.14,2159.41 1079.42,2159.41 1079.42,1320.43 450.76,1320.43 450.76,2159.41 -0,2159.41 -0,68 450.76,68 450.76,869.68 1079.42,869.68 "/>
  <polygon class="fil1" points="1668.55,926.87 1933.16,619.17 2640.85,622.4 2731.34,670.31 3769.98,1631.23 4087.58,1305.22 4435.81,1606.8 4141.34,1964.08 3431.59,2015.06 2296.32,970.61 1992.01,1252.69 "/>
  <polygon class="fil0" points="1624.5,1005.23 1624.5,1689.41 1999.73,2060.62 2734.05,2051.12 2967.32,1735.78 2612.23,1409.28 2305.63,1710.21 "/>
  <polygon class="fil0" points="3039.53,1819.93 3039.53,3462.3 3586.1,2826.8 3586.1,2137.97 3415.26,2170.57 "/>
  <polygon class="fil0" points="3099.15,861.06 3351.09,582.4 4105.81,582.4 4442.45,845.91 4451.81,930.03 4482.03,1531.5 3788.28,911.95 3496.07,1215.52 "/>
  <path class="fil0" d="M5304.15 579.94c407.15,0 737.24,351.5 737.24,785.11 0,63.04 -7.01,124.34 -20.18,183.08l-1001.89 0.37c56.22,239.64 449.53,272.69 603.16,99.52l2.79 0 0.02 0.01 284.68 165.97 58.43 36.14c-189.24,254.4 -402.26,311.68 -626.67,300.11l1.06 -1.15c-12.8,0.71 -25.69,1.07 -38.64,1.07 -407.17,0 -737.25,-351.52 -737.25,-785.12 0,-433.61 330.07,-785.11 737.25,-785.11zm-0 387.04c150.17,0 275.59,105.94 305.63,247.15l-611.26 0c30.03,-141.21 155.45,-247.15 305.63,-247.15z"/>
  <path class="fil2" d="M1811.89 287.65l0 -80.4 103.26 0c21.5,0 38.82,-5.55 50.6,-16.64 11.79,-11.09 17.34,-26.34 17.34,-45.05 0,-17.33 -5.55,-31.89 -17.34,-43.67 -11.78,-11.79 -28.42,-17.33 -49.89,-17.33l-103.97 0 0 -84.56 116.44 0c32.59,0 60.99,6.23 85.25,18.02 24.26,12.48 43.67,29.81 57.53,51.29 13.87,21.49 20.79,46.44 20.79,74.86 0,28.42 -6.92,53.37 -20.79,74.86 -13.86,21.49 -33.27,38.81 -58.23,50.6 -24.95,11.79 -54.05,18.02 -88.03,18.02l-112.97 0zm-83.18 201.7l0 -489.34 108.82 0 0 489.34 -108.82 0zm266.16 0l-152.48 -210.71 99.81 -27.03 181.61 237.74 -128.94 0z"/>
  <path class="fil2" d="M2300.96 489.34l0 -489.34 108.81 0 0 489.34 -108.81 0zm83.17 0l0 -94.27 268.25 0 0 94.27 -268.25 0zm0 -204.47l0 -90.8 243.98 0 0 90.8 -243.98 0zm0 -191.31l0 -93.57 264.77 0 0 93.57 -264.77 0z"/>
  <path class="fil2" d="M2857.26 489.34l0 -489.34 76.26 0 32.58 97.73 0 391.61 -108.84 0zm337.57 0l-288.36 -369.43 27.04 -119.91 288.33 369.43 -27.01 119.91zm0 0l-29.11 -97.73 0 -391.62 108.81 0 0 489.34 -79.7 0z"/>
  <path class="fil2" d="M3498.83 489.34l0 -489.34 108.82 0 0 489.34 -108.82 0zm83.17 0l0 -94.27 268.24 0 0 94.27 -268.24 0zm0 -204.47l0 -90.8 243.97 0 0 90.8 -243.97 0zm0 -191.31l0 -93.57 264.77 0 0 93.57 -264.77 0z"/>
  <polygon class="fil2" points="4177.13,489.34 4019.78,0 4127.9,0 4242.98,376.37 4200.68,376.37 4312.97,0 4398.23,0 4510.52,376.37 4468.94,376.37 4583.3,0 4690.72,0 4533.39,489.34 4448.13,489.34 4335.16,112.98 4375.35,112.98 4262.37,489.34 "/>
  <path class="fil2" d="M4879.68 489.34l0 -489.34 108.82 0 0 489.34 -108.82 0zm83.18 0l0 -94.27 268.23 0 0 94.27 -268.23 0zm0 -204.47l0 -90.8 243.98 0 0 90.8 -243.98 0zm0 -191.31l0 -93.57 264.77 0 0 93.57 -264.77 0z"/>
  <path class="fil2" d="M5509.46 489.34l0 -95.65 121.3 0c29.8,0 55.44,-6.24 77.62,-18.03 22.19,-11.78 39.51,-28.41 51.29,-51.29 11.77,-22.87 18.02,-49.21 18.02,-80.4 0,-31.19 -6.25,-57.53 -18.02,-79.71 -12.47,-22.18 -29.79,-39.51 -51.29,-51.29 -22.18,-11.79 -47.82,-18.03 -77.62,-18.03l-124.77 0 0 -94.95 126.16 0c36.73,0 71.39,5.54 102.56,17.32 31.2,11.79 58.24,29.12 81.79,50.6 22.88,22.18 40.9,47.82 54.08,77.63 12.47,29.8 18.71,63.08 18.71,99.11 0,35.35 -6.24,68.62 -18.71,98.43 -13.18,29.81 -31.2,56.15 -54.08,77.63 -22.86,21.49 -49.89,38.81 -81.09,50.6 -31.19,11.79 -65.15,18.02 -101.88,18.02l-124.07 0zm-73.47 0l0 -489.34 108.81 0 0 489.34 -108.81 0z"/>
 </g>
</svg>
