<?xml version="1.0" encoding="UTF-8"?>
<!DOCTYPE svg PUBLIC "-//W3C//DTD SVG 1.1//EN" "http://www.w3.org/Graphics/SVG/1.1/DTD/svg11.dtd">
<!-- Creator: CorelDRAW -->
<svg xmlns="http://www.w3.org/2000/svg" xml:space="preserve" width="70.6291mm" height="23.3829mm" version="1.1" style="shape-rendering:geometricPrecision; text-rendering:geometricPrecision; image-rendering:optimizeQuality; fill-rule:evenodd; clip-rule:evenodd"
viewBox="0 0 2786.55 922.53"
 xmlns:xlink="http://www.w3.org/1999/xlink"
 xmlns:xodm="http://www.corel.com/coreldraw/odm/2003">
 <defs>
  <style type="text/css">
   <![CDATA[
    .fil2 {fill:#FFCC00}
    .fil0 {fill:black;fill-rule:nonzero}
    .fil1 {fill:#006633;fill-rule:nonzero}
   ]]>
  </style>
 </defs>
 <g id="Layer_x0020_1">
  <metadata id="CorelCorpID_0Corel-Layer"/>
  <path class="fil0" d="M342.45 720.88l0 -102.3 42.36 0c4.41,0 8.47,0.92 12.18,2.74 3.7,1.82 6.89,4.3 9.58,7.42 2.69,3.12 4.81,6.58 6.34,10.38 1.53,3.8 2.3,7.66 2.3,11.6 0,5.57 -1.22,10.83 -3.67,15.78 -2.45,4.95 -5.88,8.96 -10.31,12.04 -4.41,3.07 -9.6,4.6 -15.56,4.6l-33.14 0 0 37.75 -10.09 0zm10.09 -46.69l32.7 0c4.03,0 7.54,-1.1 10.52,-3.31 2.97,-2.21 5.29,-5.09 6.92,-8.64 1.64,-3.56 2.45,-7.4 2.45,-11.53 0,-4.22 -0.96,-8.12 -2.88,-11.67 -1.92,-3.55 -4.44,-6.36 -7.56,-8.43 -3.12,-2.07 -6.56,-3.1 -10.31,-3.1l-31.84 0 0 46.68z"/>
  <polygon class="fil0" points="460.25,720.88 460.25,618.58 470.34,618.58 470.34,711.95 529.42,711.95 529.42,720.88 "/>
  <path class="fil0" d="M604.14 618.58l8.5 0 42.51 102.3 -10.66 0 -12.77 -31.98 -46.78 0 -12.77 31.98 -10.81 0 42.8 -102.3zm24.4 62.39l-20.22 -50.57 -20.22 50.57 40.44 0z"/>
  <polygon class="fil0" points="760.84,627.52 724.39,627.52 724.39,720.88 714.3,720.88 714.3,627.52 677.84,627.52 677.84,618.58 760.84,618.58 "/>
  <polygon class="fil0" points="873.02,711.95 873.02,720.88 804.28,720.88 804.28,618.58 871.72,618.58 871.72,627.52 814.38,627.52 814.38,664.4 864.37,664.4 864.37,672.9 814.38,672.9 814.38,711.95 "/>
  <path class="fil0" d="M951.91 618.58l8.5 0 42.5 102.3 -10.66 0 -12.77 -31.98 -46.78 0 -12.77 31.98 -10.81 0 42.79 -102.3zm24.4 62.39l-20.22 -50.57 -20.22 50.57 40.44 0z"/>
  <path class="fil0" d="M1083.11 721.61c-8.07,0 -14.89,-1.44 -20.46,-4.32 -5.57,-2.88 -9.99,-6.75 -13.26,-11.6 -3.27,-4.86 -5.65,-10.35 -7.13,-16.5 -1.49,-6.15 -2.23,-12.49 -2.23,-19.02l0 -51.58 9.93 0 0 51.58c0,5.28 0.56,10.47 1.66,15.56 1.11,5.09 2.91,9.65 5.41,13.69 2.49,4.04 5.86,7.23 10.09,9.58 4.23,2.35 9.51,3.53 15.85,3.53 6.53,0 11.93,-1.23 16.21,-3.68 4.28,-2.44 7.64,-5.69 10.09,-9.72 2.45,-4.04 4.2,-8.58 5.26,-13.62 1.06,-5.04 1.59,-10.16 1.59,-15.35l0 -51.58 10.08 0 0 51.58c0,6.83 -0.77,13.36 -2.3,19.6 -1.53,6.25 -4.01,11.72 -7.42,16.42 -3.42,4.71 -7.86,8.45 -13.33,11.24 -5.48,2.79 -12.16,4.18 -20.03,4.18z"/>
  <path class="fil0" d="M1208.41 668.87c0,-6.25 1.08,-12.37 3.24,-18.37 2.16,-6 5.3,-11.48 9.44,-16.43 4.13,-4.94 9.22,-8.88 15.27,-11.81 6.05,-2.93 12.92,-4.4 20.6,-4.4 9.13,0 16.93,2.09 23.41,6.27 6.48,4.17 11.27,9.53 14.34,16.06l-7.92 4.9c-2.21,-4.51 -5,-8.09 -8.36,-10.73 -3.36,-2.64 -6.94,-4.54 -10.73,-5.7 -3.8,-1.15 -7.56,-1.73 -11.31,-1.73 -6.15,0 -11.57,1.23 -16.28,3.68 -4.71,2.45 -8.67,5.71 -11.89,9.8 -3.22,4.08 -5.64,8.64 -7.28,13.69 -1.63,5.04 -2.45,10.16 -2.45,15.34 0,5.67 0.95,11.1 2.88,16.28 1.92,5.19 4.61,9.78 8.06,13.76 3.46,3.98 7.52,7.16 12.18,9.51 4.66,2.35 9.73,3.53 15.21,3.53 3.84,0 7.78,-0.67 11.81,-2.02 4.04,-1.35 7.81,-3.41 11.31,-6.19 3.51,-2.79 6.32,-6.39 8.43,-10.81l8.36 4.32c-2.11,5.09 -5.38,9.41 -9.8,12.97 -4.42,3.55 -9.34,6.25 -14.76,8.07 -5.43,1.82 -10.74,2.74 -15.93,2.74 -7.01,0 -13.45,-1.52 -19.31,-4.54 -5.86,-3.03 -10.92,-7.06 -15.2,-12.1 -4.28,-5.04 -7.57,-10.71 -9.87,-17 -2.3,-6.29 -3.46,-12.65 -3.46,-19.09z"/>
  <path class="fil0" d="M1382.26 721.61c-7.21,0 -13.74,-1.44 -19.6,-4.32 -5.86,-2.88 -10.9,-6.8 -15.13,-11.75 -4.23,-4.95 -7.49,-10.52 -9.8,-16.71 -2.3,-6.19 -3.46,-12.56 -3.46,-19.09 0,-6.83 1.2,-13.33 3.61,-19.53 2.4,-6.2 5.78,-11.72 10.16,-16.57 4.37,-4.85 9.49,-8.7 15.35,-11.52 5.86,-2.84 12.2,-4.25 19.02,-4.25 7.2,0 13.73,1.49 19.59,4.47 5.86,2.98 10.88,6.97 15.06,11.96 4.17,4.99 7.42,10.57 9.72,16.72 2.31,6.15 3.46,12.44 3.46,18.87 0,6.82 -1.2,13.33 -3.6,19.53 -2.4,6.19 -5.77,11.71 -10.08,16.57 -4.32,4.85 -9.42,8.67 -15.28,11.45 -5.85,2.79 -12.2,4.18 -19.02,4.18zm-37.89 -51.87c0,5.57 0.91,10.92 2.73,16.06 1.83,5.14 4.42,9.71 7.79,13.69 3.36,3.98 7.37,7.16 12.03,9.51 4.66,2.35 9.78,3.53 15.35,3.53 5.85,0 11.12,-1.23 15.78,-3.68 4.65,-2.44 8.64,-5.71 11.95,-9.8 3.32,-4.08 5.84,-8.67 7.57,-13.76 1.73,-5.09 2.59,-10.28 2.59,-15.56 0,-5.57 -0.91,-10.9 -2.73,-15.99 -1.83,-5.09 -4.44,-9.66 -7.85,-13.69 -3.41,-4.04 -7.43,-7.21 -12.03,-9.51 -4.61,-2.3 -9.7,-3.46 -15.27,-3.46 -5.76,0 -10.97,1.2 -15.63,3.6 -4.66,2.4 -8.65,5.64 -11.96,9.73 -3.31,4.08 -5.85,8.67 -7.63,13.75 -1.78,5.1 -2.66,10.28 -2.66,15.57z"/>
  <polygon class="fil0" points="1568.07,720.88 1568.07,637.6 1531.04,702.3 1524.7,702.3 1487.53,637.6 1487.53,720.88 1477.44,720.88 1477.44,618.58 1487.82,618.58 1527.72,688.61 1567.93,618.58 1578.16,618.58 1578.16,720.88 "/>
  <polygon class="fil0" points="1722.61,720.88 1722.61,637.6 1685.58,702.3 1679.24,702.3 1642.07,637.6 1642.07,720.88 1631.98,720.88 1631.98,618.58 1642.35,618.58 1682.27,688.61 1722.46,618.58 1732.7,618.58 1732.7,720.88 "/>
  <path class="fil0" d="M1827.73 721.61c-7.2,0 -13.73,-1.44 -19.59,-4.32 -5.86,-2.88 -10.9,-6.8 -15.13,-11.75 -4.23,-4.95 -7.49,-10.52 -9.8,-16.71 -2.31,-6.19 -3.46,-12.56 -3.46,-19.09 0,-6.83 1.2,-13.33 3.61,-19.53 2.39,-6.2 5.78,-11.72 10.16,-16.57 4.37,-4.85 9.48,-8.7 15.35,-11.52 5.85,-2.84 12.2,-4.25 19.02,-4.25 7.2,0 13.73,1.49 19.59,4.47 5.86,2.98 10.88,6.97 15.06,11.96 4.17,4.99 7.42,10.57 9.72,16.72 2.31,6.15 3.46,12.44 3.46,18.87 0,6.82 -1.2,13.33 -3.6,19.53 -2.4,6.19 -5.77,11.71 -10.08,16.57 -4.32,4.85 -9.42,8.67 -15.28,11.45 -5.85,2.79 -12.2,4.18 -19.02,4.18zm-37.89 -51.87c0,5.57 0.91,10.92 2.73,16.06 1.83,5.14 4.42,9.71 7.78,13.69 3.36,3.98 7.37,7.16 12.03,9.51 4.66,2.35 9.77,3.53 15.34,3.53 5.86,0 11.12,-1.23 15.78,-3.68 4.66,-2.44 8.64,-5.71 11.95,-9.8 3.32,-4.08 5.84,-8.67 7.57,-13.76 1.73,-5.09 2.59,-10.28 2.59,-15.56 0,-5.57 -0.91,-10.9 -2.73,-15.99 -1.83,-5.09 -4.45,-9.66 -7.85,-13.69 -3.41,-4.04 -7.43,-7.21 -12.04,-9.51 -4.6,-2.3 -9.7,-3.46 -15.27,-3.46 -5.76,0 -10.97,1.2 -15.63,3.6 -4.66,2.4 -8.65,5.64 -11.96,9.73 -3.31,4.08 -5.86,8.67 -7.64,13.75 -1.78,5.1 -2.66,10.28 -2.66,15.57z"/>
  <path class="fil0" d="M1922.91 720.88l0 -102.3 34.73 0c10.85,0 19.91,2.28 27.16,6.85 7.25,4.56 12.7,10.71 16.35,18.44 3.65,7.74 5.48,16.3 5.48,25.72 0,10.37 -2,19.41 -5.98,27.08 -3.99,7.69 -9.66,13.64 -17,17.87 -7.35,4.23 -16.02,6.34 -26.01,6.34l-34.73 0zm73.63 -51.29c0,-8.17 -1.52,-15.42 -4.54,-21.76 -3.03,-6.34 -7.42,-11.31 -13.19,-14.91 -5.76,-3.6 -12.82,-5.4 -21.18,-5.4l-24.64 0 0 84.43 24.64 0c8.45,0 15.56,-1.87 21.32,-5.62 5.76,-3.75 10.14,-8.82 13.11,-15.2 2.98,-6.39 4.47,-13.57 4.47,-21.54z"/>
  <polygon class="fil0" points="2054.11,720.88 2054.11,618.58 2064.2,618.58 2064.2,720.88 "/>
  <polygon class="fil0" points="2190.64,627.52 2154.19,627.52 2154.19,720.88 2144.1,720.88 2144.1,627.52 2107.65,627.52 2107.65,618.58 2190.64,618.58 "/>
  <polygon class="fil0" points="2234.67,618.58 2268.1,673.62 2301.81,618.58 2312.77,618.58 2273.13,682.84 2273.13,720.88 2263.05,720.88 2263.05,682.56 2223.57,618.58 "/>
  <polygon class="fil0" points="433.09,921.81 433.09,838.53 396.06,903.23 389.72,903.23 352.55,838.53 352.55,921.81 342.45,921.81 342.45,819.51 352.83,819.51 392.74,889.53 432.94,819.51 443.17,819.51 443.17,921.81 "/>
  <path class="fil0" d="M528.7 819.51l8.5 0 42.51 102.3 -10.66 0 -12.77 -31.99 -46.78 0 -12.77 31.99 -10.81 0 42.8 -102.3zm24.4 62.39l-20.22 -50.58 -20.22 50.58 40.44 0z"/>
  <path class="fil0" d="M622.57 921.81l0 -102.3 43.23 0c4.42,0 8.45,0.91 12.1,2.74 3.65,1.82 6.85,4.3 9.58,7.42 2.74,3.13 4.85,6.58 6.34,10.38 1.49,3.8 2.23,7.66 2.23,11.6 0,4.9 -0.94,9.52 -2.81,13.84 -1.87,4.32 -4.51,7.97 -7.92,10.95 -3.41,2.97 -7.43,4.94 -12.03,5.91l25.07 39.48 -11.38 0 -24.06 -37.75 -30.26 0 0 37.75 -10.09 0zm10.09 -46.69l33.42 0c4.03,0 7.54,-1.1 10.52,-3.31 2.97,-2.21 5.28,-5.12 6.92,-8.72 1.63,-3.61 2.45,-7.42 2.45,-11.46 0,-4.13 -0.94,-7.95 -2.81,-11.45 -1.88,-3.51 -4.38,-6.34 -7.5,-8.5 -3.12,-2.16 -6.6,-3.24 -10.44,-3.24l-32.56 0 0 46.68z"/>
  <polygon class="fil0" points="744.84,921.81 744.84,819.51 754.93,819.51 754.93,878.95 811.27,819.37 822.36,819.37 780.58,864.39 824.52,921.81 813.14,921.81 774.09,870.45 754.93,890.35 754.93,921.81 "/>
  <polygon class="fil0" points="934.39,912.87 934.39,921.81 865.67,921.81 865.67,819.51 933.1,819.51 933.1,828.44 875.75,828.44 875.75,865.33 925.75,865.33 925.75,873.83 875.75,873.83 875.75,912.87 "/>
  <polygon class="fil0" points="1054.21,828.44 1017.76,828.44 1017.76,921.81 1007.68,921.81 1007.68,828.44 971.22,828.44 971.22,819.51 1054.21,819.51 "/>
  <path class="fil0" d="M1123.46 869.8c0,-6.24 1.08,-12.36 3.24,-18.37 2.16,-6 5.31,-11.48 9.44,-16.43 4.13,-4.94 9.22,-8.88 15.27,-11.82 6.05,-2.92 12.92,-4.39 20.6,-4.39 9.13,0 16.93,2.09 23.41,6.27 6.49,4.17 11.27,9.53 14.34,16.06l-7.92 4.9c-2.21,-4.52 -4.99,-8.1 -8.36,-10.74 -3.36,-2.64 -6.94,-4.54 -10.73,-5.69 -3.79,-1.15 -7.57,-1.73 -11.32,-1.73 -6.15,0 -11.57,1.23 -16.28,3.68 -4.71,2.44 -8.67,5.71 -11.89,9.8 -3.22,4.08 -5.65,8.64 -7.28,13.69 -1.63,5.05 -2.44,10.16 -2.44,15.34 0,5.67 0.95,11.1 2.88,16.28 1.92,5.19 4.61,9.78 8.07,13.77 3.46,3.99 7.52,7.16 12.17,9.51 4.66,2.35 9.73,3.53 15.21,3.53 3.84,0 7.78,-0.67 11.82,-2.02 4.03,-1.35 7.81,-3.41 11.31,-6.2 3.51,-2.78 6.31,-6.39 8.43,-10.8l8.36 4.32c-2.11,5.09 -5.38,9.41 -9.8,12.97 -4.42,3.55 -9.34,6.25 -14.77,8.07 -5.43,1.82 -10.74,2.74 -15.93,2.74 -7.01,0 -13.44,-1.52 -19.3,-4.54 -5.85,-3.03 -10.93,-7.06 -15.2,-12.1 -4.27,-5.04 -7.56,-10.71 -9.87,-17 -2.3,-6.29 -3.46,-12.66 -3.46,-19.1z"/>
  <path class="fil0" d="M1297.31 922.53c-7.2,0 -13.73,-1.44 -19.59,-4.32 -5.86,-2.89 -10.9,-6.8 -15.13,-11.75 -4.23,-4.95 -7.5,-10.52 -9.8,-16.72 -2.3,-6.19 -3.46,-12.55 -3.46,-19.09 0,-6.82 1.2,-13.33 3.61,-19.53 2.4,-6.19 5.78,-11.72 10.16,-16.57 4.37,-4.86 9.48,-8.7 15.35,-11.53 5.86,-2.84 12.2,-4.25 19.02,-4.25 7.2,0 13.73,1.49 19.6,4.47 5.85,2.98 10.88,6.96 15.06,11.96 4.17,4.99 7.42,10.56 9.72,16.71 2.3,6.14 3.46,12.44 3.46,18.87 0,6.82 -1.2,13.33 -3.61,19.53 -2.4,6.19 -5.76,11.71 -10.08,16.57 -4.32,4.85 -9.41,8.67 -15.27,11.45 -5.85,2.79 -12.2,4.18 -19.02,4.18zm-37.89 -51.87c0,5.57 0.91,10.92 2.73,16.06 1.83,5.14 4.42,9.7 7.78,13.69 3.36,3.99 7.37,7.16 12.03,9.51 4.66,2.35 9.78,3.53 15.34,3.53 5.86,0 11.12,-1.23 15.78,-3.68 4.66,-2.45 8.64,-5.71 11.95,-9.8 3.32,-4.08 5.84,-8.67 7.57,-13.76 1.73,-5.09 2.59,-10.28 2.59,-15.56 0,-5.57 -0.91,-10.9 -2.73,-15.99 -1.83,-5.09 -4.45,-9.65 -7.86,-13.69 -3.41,-4.03 -7.43,-7.2 -12.03,-9.51 -4.61,-2.3 -9.71,-3.46 -15.28,-3.46 -5.76,0 -10.97,1.2 -15.63,3.6 -4.66,2.4 -8.65,5.64 -11.96,9.73 -3.31,4.08 -5.85,8.67 -7.63,13.76 -1.78,5.09 -2.67,10.28 -2.67,15.56z"/>
  <polygon class="fil0" points="1483.12,921.81 1483.12,838.53 1446.09,903.23 1439.75,903.23 1402.58,838.53 1402.58,921.81 1392.49,921.81 1392.49,819.51 1402.87,819.51 1442.78,889.53 1482.98,819.51 1493.21,819.51 1493.21,921.81 "/>
  <path class="fil0" d="M1547.03 921.81l0 -102.3 42.36 0c4.41,0 8.47,0.91 12.18,2.74 3.7,1.82 6.89,4.3 9.58,7.42 2.68,3.13 4.8,6.58 6.34,10.38 1.53,3.8 2.3,7.66 2.3,11.6 0,5.58 -1.22,10.83 -3.67,15.78 -2.45,4.95 -5.89,8.96 -10.31,12.03 -4.41,3.07 -9.6,4.61 -15.56,4.61l-33.14 0 0 37.75 -10.09 0zm10.09 -46.69l32.7 0c4.03,0 7.54,-1.1 10.52,-3.31 2.98,-2.21 5.29,-5.09 6.92,-8.64 1.64,-3.56 2.45,-7.4 2.45,-11.53 0,-4.22 -0.96,-8.11 -2.88,-11.67 -1.92,-3.55 -4.44,-6.36 -7.56,-8.43 -3.12,-2.07 -6.56,-3.1 -10.3,-3.1l-31.84 0 0 46.68z"/>
  <path class="fil0" d="M1689.47 819.51l8.5 0 42.51 102.3 -10.66 0 -12.77 -31.99 -46.78 0 -12.77 31.99 -10.81 0 42.8 -102.3zm24.4 62.39l-20.22 -50.58 -20.22 50.58 40.44 0z"/>
  <polygon class="fil0" points="1793.44,838.1 1793.44,921.81 1783.35,921.81 1783.35,819.51 1791.71,819.51 1858.85,904.81 1858.85,819.66 1868.94,819.66 1868.94,921.81 1859.57,921.81 "/>
  <polygon class="fil0" points="1923.34,819.51 1956.77,874.55 1990.48,819.51 2001.44,819.51 1961.81,883.77 1961.81,921.81 1951.72,921.81 1951.72,883.49 1912.24,819.51 "/>
  <polygon class="fil0" points="2076.29,921.81 2076.29,819.51 2086.38,819.51 2086.38,912.87 2145.46,912.87 2145.46,921.81 "/>
  <polygon class="fil0" points="2188.48,921.81 2188.48,819.51 2198.56,819.51 2198.56,921.81 "/>
  <polygon class="fil0" points="2343.02,921.81 2343.02,838.53 2305.99,903.23 2299.65,903.23 2262.48,838.53 2262.48,921.81 2252.39,921.81 2252.39,819.51 2262.77,819.51 2302.67,889.53 2342.88,819.51 2353.1,819.51 2353.1,921.81 "/>
  <polygon class="fil0" points="2406.93,921.81 2406.93,819.51 2417.02,819.51 2417.02,921.81 "/>
  <polygon class="fil0" points="2543.46,828.44 2507.01,828.44 2507.01,921.81 2496.93,921.81 2496.93,828.44 2460.47,828.44 2460.47,819.51 2543.46,819.51 "/>
  <polygon class="fil0" points="2655.64,912.87 2655.64,921.81 2586.91,921.81 2586.91,819.51 2654.34,819.51 2654.34,828.44 2597,828.44 2597,865.33 2646.99,865.33 2646.99,873.83 2597,873.83 2597,912.87 "/>
  <path class="fil0" d="M2702.84 921.81l0 -102.3 34.73 0c10.85,0 19.91,2.28 27.16,6.84 7.25,4.56 12.7,10.72 16.35,18.44 3.65,7.73 5.48,16.3 5.48,25.72 0,10.37 -1.99,19.4 -5.98,27.09 -3.98,7.69 -9.66,13.64 -17,17.87 -7.35,4.23 -16.02,6.34 -26.01,6.34l-34.73 0zm73.63 -51.29c0,-8.17 -1.52,-15.42 -4.54,-21.75 -3.02,-6.34 -7.42,-11.32 -13.18,-14.91 -5.76,-3.61 -12.83,-5.41 -21.18,-5.41l-24.63 0 0 84.43 24.63 0c8.45,0 15.56,-1.87 21.32,-5.61 5.76,-3.75 10.14,-8.81 13.11,-15.2 2.98,-6.39 4.47,-13.57 4.47,-21.54z"/>
  <path class="fil1" d="M351.41 6.83l0 374.14 103.49 0 0 -100.65 61.41 0c99.51,0 153.52,-49.47 153.52,-137.03 0,-80.17 -52.88,-136.46 -167.17,-136.46l-151.25 0zm103.49 194.46l0 -105.76 44.92 0c58.56,0 68.23,26.72 68.23,51.17 0,35.26 -18.76,54.59 -64.25,54.59l-48.9 0z"/>
  <path class="fil1" d="M1169.07 6.83l-154.09 374.14 116 0 29 -73.92 141.02 0 29.56 73.92 116 0 -154.09 -374.14 -123.39 0zm33.55 177.97c8.53,-22.18 26.16,-80.17 26.16,-80.17l3.41 0c0,0 17.62,58.56 26.15,80.17l18.76 46.06 -93.25 0 18.76 -46.06z"/>
  <path class="fil1" d="M1674.56 387.79c80.17,0 132.48,-36.39 152.39,-56.86l-32.99 -77.33c-21.6,18.2 -58,43.22 -108.03,43.22 -70.51,0 -109.74,-43.79 -109.74,-101.21 0,-58 40.37,-104.62 107.47,-104.62 39.23,0 73.35,14.21 100.07,35.82l31.84 -83.02c-25.59,-19.34 -67.66,-43.79 -141.58,-43.79 -127.94,0 -209.24,88.7 -209.24,197.31 0,99.51 63.68,190.48 209.81,190.48z"/>
  <path class="fil1" d="M2061.22 0c-120.55,0 -208.11,83.02 -208.11,191.62 0,118.27 87,196.17 208.11,196.17 125.66,0 207.54,-83.59 207.54,-196.17 0,-108.6 -88.13,-191.62 -207.54,-191.62zm0 94.39c55.72,0 97.8,39.23 97.8,97.8 0,64.82 -42.65,101.22 -97.8,101.22 -55.72,0 -98.37,-36.4 -98.37,-101.22 0,-58.56 42.65,-97.8 98.37,-97.8z"/>
  <path class="fil1" d="M2528.05 325.81l14.79 0 68.8 -106.89c9.67,-14.79 38.1,-65.39 38.1,-65.39l1.71 0.57c0,0 -4.55,58.57 -4.55,77.9l0 148.98 103.49 0 0 -374.14 -106.9 0 -107.46 166.03 -1.14 0 -108.03 -166.03 -106.9 0 0 374.14 103.49 0 0 -148.98c0,-19.33 -5.12,-77.9 -5.12,-77.9l1.7 -0.57c0,0 28.43,50.61 38.1,65.39l69.94 106.89z"/>
  <polygon class="fil1" points="721.01,6.83 721.01,380.97 1005.88,380.97 1005.88,289.99 824.5,289.99 824.5,6.83 "/>
  <path class="fil2" d="M34.82 490.44c343.36,-65.05 988.51,-84.8 1305.32,61.68 -368.74,-61.29 -912.85,-50.37 -1276.51,32.43 -25.99,7.95 -53.51,-6.66 -61.46,-32.66 -7.95,-25.99 6.66,-53.51 32.65,-61.46z"/>
 </g>
</svg>
